<svg id="Livello_1" data-name="Livello 1" xmlns="http://www.w3.org/2000/svg" viewBox="0 0 445.41 150.21"><defs><style>.cls-1{fill:#f6eb16;}.cls-2{fill:#e81e25;}.cls-3{fill:#c5b82f;}</style></defs><title>tavolo</title><polygon class="cls-1" points="32.16 13.61 413.25 13.61 445.41 109.18 0 109.18 32.16 13.61"/><path class="cls-2" d="M352.91,311.2c0,4.71-9.6,8.52-21.44,8.52S310,315.91,310,311.2v-5.55h42.87v5.55Z" transform="translate(-198.3 -242.91)"/><path class="cls-2" d="M352.91,306.45c0,4.71-9.6,8.52-21.44,8.52S310,311.16,310,306.45V300.9h42.87v5.55Z" transform="translate(-198.3 -242.91)"/><ellipse class="cls-2" cx="133.17" cy="57.99" rx="21.44" ry="8.52"/><rect class="cls-2" x="129.56" y="24.4" width="7.23" height="34.02"/><circle class="cls-2" cx="133.17" cy="16.53" r="16.53"/><path d="M428.18,285.31c0,4.12-8.4,7.46-18.76,7.46s-18.76-3.34-18.76-7.46v-4.85h37.51v4.85Z" transform="translate(-198.3 -242.91)"/><path d="M428.18,281.25c0,4.12-8.4,7.46-18.76,7.46s-18.76-3.34-18.76-7.46v-4.85h37.51v4.85Z" transform="translate(-198.3 -242.91)"/><ellipse cx="211.12" cy="33.48" rx="18.76" ry="7.46"/><path d="M424.39,275c0,3.29-6.7,5.95-15,5.95s-15-2.66-15-5.95v-4.16h29.93V275Z" transform="translate(-198.3 -242.91)"/><ellipse cx="211.12" cy="27.93" rx="14.97" ry="5.95"/><path d="M478.69,285.31c0,4.12-8.4,7.46-18.76,7.46s-18.76-3.34-18.76-7.46v-4.85h37.51v4.85Z" transform="translate(-198.3 -242.91)"/><path d="M478.69,281.25c0,4.12-8.4,7.46-18.76,7.46s-18.76-3.34-18.76-7.46v-4.85h37.51v4.85Z" transform="translate(-198.3 -242.91)"/><ellipse cx="261.63" cy="33.48" rx="18.76" ry="7.46"/><path d="M474.9,275c0,3.29-6.7,5.95-15,5.95s-15-2.66-15-5.95v-4.16H474.9V275Z" transform="translate(-198.3 -242.91)"/><ellipse cx="261.63" cy="27.93" rx="14.97" ry="5.95"/><path d="M529.21,285.31c0,4.12-8.4,7.46-18.76,7.46s-18.76-3.34-18.76-7.46v-4.85h37.51v4.85Z" transform="translate(-198.3 -242.91)"/><path d="M529.21,281.25c0,4.12-8.4,7.46-18.76,7.46s-18.76-3.34-18.76-7.46v-4.85h37.51v4.85Z" transform="translate(-198.3 -242.91)"/><ellipse cx="312.15" cy="33.48" rx="18.76" ry="7.46"/><path d="M525.42,275c0,3.29-6.7,5.95-15,5.95s-15-2.66-15-5.95v-4.16h29.93V275Z" transform="translate(-198.3 -242.91)"/><ellipse cx="312.15" cy="27.93" rx="14.97" ry="5.95"/><path d="M455.29,317.42c0,4.12-8.4,7.46-18.76,7.46s-18.76-3.34-18.76-7.46v-4.85h37.51v4.85Z" transform="translate(-198.3 -242.91)"/><path d="M455.29,313.35c0,4.12-8.4,7.46-18.76,7.46s-18.76-3.34-18.76-7.46V308.5h37.51v4.85Z" transform="translate(-198.3 -242.91)"/><ellipse cx="238.23" cy="65.58" rx="18.76" ry="7.46"/><path d="M451.5,307.11c0,3.29-6.7,5.95-15,5.95s-15-2.66-15-5.95V303H451.5v4.16Z" transform="translate(-198.3 -242.91)"/><ellipse cx="238.23" cy="60.04" rx="14.97" ry="5.95"/><path d="M505.8,317.42c0,4.12-8.4,7.46-18.76,7.46s-18.76-3.34-18.76-7.46v-4.85H505.8v4.85Z" transform="translate(-198.3 -242.91)"/><path d="M505.8,313.35c0,4.12-8.4,7.46-18.76,7.46s-18.76-3.34-18.76-7.46V308.5H505.8v4.85Z" transform="translate(-198.3 -242.91)"/><ellipse cx="288.74" cy="65.58" rx="18.76" ry="7.46"/><path d="M502,307.11c0,3.29-6.7,5.95-15,5.95s-15-2.66-15-5.95V303H502v4.16Z" transform="translate(-198.3 -242.91)"/><ellipse cx="288.74" cy="60.04" rx="14.97" ry="5.95"/><path d="M556.32,317.42c0,4.12-8.4,7.46-18.76,7.46s-18.76-3.34-18.76-7.46v-4.85h37.51v4.85Z" transform="translate(-198.3 -242.91)"/><path d="M556.32,313.35c0,4.12-8.4,7.46-18.76,7.46s-18.76-3.34-18.76-7.46V308.5h37.51v4.85Z" transform="translate(-198.3 -242.91)"/><ellipse cx="339.26" cy="65.58" rx="18.76" ry="7.46"/><path d="M552.53,307.11c0,3.29-6.7,5.95-15,5.95s-15-2.66-15-5.95V303h29.93v4.16Z" transform="translate(-198.3 -242.91)"/><ellipse cx="339.26" cy="60.04" rx="14.97" ry="5.95"/><rect class="cls-3" y="109.18" width="445.41" height="41.03"/></svg>